<svg xmlns="http://www.w3.org/2000/svg" viewBox="0 0 64 64" width="64" height="64" role="img" aria-label="Copa Colombia">
  <defs>
    <linearGradient id="copacol" x1="0" y1="0" x2="1" y2="1">
      <stop offset="0" stop-color="#FFF0C2"/>
      <stop offset="0.45" stop-color="#F6C750"/>
      <stop offset="1" stop-color="#8A6410"/>
    </linearGradient>
    <linearGradient id="brillo" x1="0" y1="0" x2="1" y2="0">
      <stop offset="0" stop-color="#ffffff" stop-opacity="0.55"/>
      <stop offset="0.4" stop-color="#ffffff" stop-opacity="0"/>
    </linearGradient>
  </defs>
  <path d="M18 14 h28 v9 c0 8.5 -6 14 -14 14 S18 31.5 18 23 z" fill="url(#copacol)"/>
  <path d="M18 15.5 h6 v7.5 c0 6 2.4 10.2 5.5 12 -6.8 -1.3 -11.5 -6.4 -11.5 -12 z" fill="url(#brillo)"/>
  <path d="M18 17 c-4.6 0 -7.4 2.6 -7.4 6 s2.8 6 7.4 6" fill="none" stroke="url(#copacol)" stroke-width="2.6" stroke-linecap="round"/>
  <path d="M46 17 c4.6 0 7.4 2.6 7.4 6 s-2.8 6 -7.4 6" fill="none" stroke="url(#copacol)" stroke-width="2.6" stroke-linecap="round"/>
  <rect x="29" y="37" width="6" height="13" fill="url(#copacol)"/>

  <rect x="20" y="52" width="24" height="4.5" rx="1.6" fill="url(#copacol)"/>
  <rect x="15" y="56" width="34" height="5.5" rx="2" fill="url(#copacol)" opacity="0.9"/>
</svg>
