<svg xmlns="http://www.w3.org/2000/svg" viewBox="0 0 64 64" width="64" height="64" role="img" aria-label="Referente">
  <defs>
    <linearGradient id="idre" x1="0" y1="0" x2="1" y2="1">
      <stop offset="0" stop-color="#CFE4FF"/>
      <stop offset="0.45" stop-color="#4E8FD6"/>
      <stop offset="1" stop-color="#1E4A78"/>
    </linearGradient>
    <linearGradient id="brillo" x1="0" y1="0" x2="1" y2="0">
      <stop offset="0" stop-color="#ffffff" stop-opacity="0.55"/>
      <stop offset="0.4" stop-color="#ffffff" stop-opacity="0"/>
    </linearGradient>
  </defs>
  <path d="M32 7 L52 14 v16 c0 12 -8.2 20.5 -20 24.5 C20.2 50.5 12 42 12 30 V14 z" fill="url(#idre)"/>
  <path d="M32 7 L22 10.5 v19.5 c0 9 4.2 15.8 10 20 -11.8 -4 -20 -12.5 -20 -24.5 V14 z" fill="url(#brillo)"/>
  <rect x="19" y="24" width="26" height="8.5" rx="2" fill="#0b1220" fill-opacity="0.42"/>
  <path d="M24 32.5 l4 9 4 -4 4 4 4 -9 z" fill="#0b1220" fill-opacity="0.42"/>
</svg>
